# 3ds Max Wavefront OBJ Exporter v0.99 - (c)2007 guruware
# File Created: 03.04.2023 21:35:00

#
# object SM_Cabinet_Door
#

v  -0.0155 0.6653 -0.4267
v  -0.0167 0.0988 -0.4243
v  -0.0155 0.6653 -0.0603
v  -0.0167 0.0988 -0.0579
# 4 vertices

vn -1.0000 0.0022 -0.0000
vn -1.0000 0.0022 -0.0000
vn -1.0000 0.0022 -0.0000
vn -1.0000 0.0022 -0.0000
vn -1.0000 0.0022 -0.0000
vn -1.0000 0.0022 -0.0000
# 6 vertex normals

vt 0.9634 0.0026 0.0000
vt 0.9250 0.7224 0.0000
vt 0.8612 0.4424 0.0000
vt 0.9564 0.7690 0.0000
vt 0.8514 0.7326 0.0000
vt 0.8193 0.5391 0.0000
vt 0.4074 0.0403 0.0000
vt 0.9153 0.7449 0.0000
vt 0.2755 0.1592 0.0000
vt 0.4430 0.7647 0.0000
vt 0.1242 0.1398 0.0000
vt 0.8675 0.4361 0.0000
vt 0.4493 0.7686 0.0000
vt 0.2759 0.1779 0.0000
vt 0.8309 0.7641 0.0000
vt 0.9116 0.7439 0.0000
vt 0.2720 0.1943 0.0000
vt 0.8475 0.7701 0.0000
vt 0.8294 0.7693 0.0000
vt 0.9575 0.7542 0.0000
vt 0.4230 0.3112 0.0000
vt 0.3670 0.2517 0.0000
vt 0.9249 0.7342 0.0000
vt 0.9032 0.2496 0.0000
vt 0.4017 0.1665 0.0000
vt 0.3125 0.1654 0.0000
vt 0.9110 0.7313 0.0000
vt 0.8557 0.4424 0.0000
vt 0.8527 0.7121 0.0000
vt 0.9641 0.7502 0.0000
vt 0.1645 0.1460 0.0000
vt 0.2775 0.1324 0.0000
vt 0.2921 0.1887 0.0000
vt 0.2779 0.1875 0.0000
vt 0.2815 0.1987 0.0000
vt 0.3049 0.1682 0.0000
vt 0.1645 0.1476 0.0000
vt 0.9193 0.7513 0.0000
vt 0.1697 0.1471 0.0000
vt 0.4074 0.0914 0.0000
vt 0.9366 0.7451 0.0000
vt 0.2555 0.1830 0.0000
vt 0.9252 0.7253 0.0000
vt 0.8460 0.7188 0.0000
vt 0.4096 0.2019 0.0000
vt 0.2652 0.1592 0.0000
vt 0.9605 0.7631 0.0000
vt 0.4074 0.0545 0.0000
vt 0.8619 0.5402 0.0000
vt 0.8260 0.7608 0.0000
vt 0.4095 0.0921 0.0000
vt 0.4192 0.2662 0.0000
vt 0.4014 0.1734 0.0000
vt 0.2841 0.1592 0.0000
vt 0.8675 0.8629 0.0000
vt 0.9046 0.4148 0.0000
vt 0.7883 0.7639 0.0000
vt 0.4094 0.1733 0.0000
vt 0.3049 0.1840 0.0000
vt 0.4441 0.7681 0.0000
vt 0.8938 0.4294 0.0000
vt 0.2166 0.1398 0.0000
vt 0.9153 0.7568 0.0000
vt 0.9566 0.5820 0.0000
vt 0.0426 0.0529 0.0000
vt 0.2759 0.1924 0.0000
vt 0.2137 0.0329 0.0000
vt 0.3000 0.1593 0.0000
vt 0.8226 0.7619 0.0000
vt 0.8594 0.6978 0.0000
vt 0.9752 0.2694 0.0000
vt 0.3435 0.1325 0.0000
vt 0.4095 0.0545 0.0000
vt 0.3297 0.1325 0.0000
vt 0.8407 0.6853 0.0000
vt 0.9634 0.3075 0.0000
vt 0.9338 0.0026 0.0000
vt 0.8549 0.6853 0.0000
vt 0.3016 0.1836 0.0000
vt 0.4095 0.1051 0.0000
vt 0.8455 0.7381 0.0000
vt 0.4356 0.7681 0.0000
vt 0.4150 0.2918 0.0000
vt 0.9597 0.7527 0.0000
vt 0.7842 0.7575 0.0000
vt 0.8324 0.7649 0.0000
vt 0.4400 0.7607 0.0000
vt 0.3744 0.2502 0.0000
vt 0.8547 0.7326 0.0000
vt 0.8294 0.7619 0.0000
vt 0.8426 0.4928 0.0000
vt 0.4382 0.1630 0.0000
vt 0.7936 0.7591 0.0000
vt 0.8408 0.7635 0.0000
vt 0.4150 0.3009 0.0000
vt 0.7842 0.7565 0.0000
vt 0.7798 0.7590 0.0000
vt 0.8491 0.7680 0.0000
vt 0.3678 0.2542 0.0000
vt 0.1678 0.1398 0.0000
vt 0.8210 0.5558 0.0000
vt 0.8335 0.7685 0.0000
vt 0.4150 0.3111 0.0000
vt 0.7806 0.7565 0.0000
vt 0.9182 0.7547 0.0000
vt 0.8024 0.7665 0.0000
vt 0.4096 0.1661 0.0000
vt 0.2767 0.1349 0.0000
vt 0.3731 0.1344 0.0000
vt 0.9301 0.7315 0.0000
vt 0.9448 0.6215 0.0000
vt 0.3670 0.2502 0.0000
vt 0.8604 0.7595 0.0000
vt 0.3779 0.2888 0.0000
vt 0.4289 0.3576 0.0000
vt 0.4150 0.2662 0.0000
vt 0.3845 0.2413 0.0000
vt 0.9108 0.7513 0.0000
vt 0.8282 0.5436 0.0000
vt 0.9524 0.3562 0.0000
vt 0.4339 0.1742 0.0000
vt 0.4408 0.7632 0.0000
vt 0.0030 0.9826 0.0000
vt 0.8210 0.5402 0.0000
vt 0.8549 0.6920 0.0000
vt 0.8442 0.7627 0.0000
vt 0.9278 0.2413 0.0000
vt 0.8506 0.7635 0.0000
vt 0.9046 0.3921 0.0000
vt 0.4381 0.1706 0.0000
vt 0.9108 0.7224 0.0000
vt 0.8371 0.5155 0.0000
vt 0.4340 0.1670 0.0000
vt 0.8549 0.6887 0.0000
vt 0.2628 0.1844 0.0000
vt 0.3923 0.0298 0.0000
vt 0.4356 0.7632 0.0000
vt 0.4356 0.7647 0.0000
vt 0.0426 0.1709 0.0000
vt 0.1630 0.0329 0.0000
vt 0.2401 0.0323 0.0000
vt 0.4363 0.7715 0.0000
vt 0.8319 0.7261 0.0000
vt 0.4074 0.0654 0.0000
vt 0.1873 0.1031 0.0000
vt 0.8281 0.5560 0.0000
vt 0.3678 0.2532 0.0000
vt 0.2568 0.1324 0.0000
vt 0.4363 0.7617 0.0000
vt 0.9338 0.2285 0.0000
vt 0.3768 0.2855 0.0000
vt 0.1451 0.1450 0.0000
vt 0.9330 0.7451 0.0000
vt 0.8212 0.5437 0.0000
vt 0.2908 0.1697 0.0000
vt 0.8387 0.7672 0.0000
vt 0.9018 0.4148 0.0000
vt 0.3715 0.2532 0.0000
vt 0.9108 0.7568 0.0000
vt 0.8212 0.5527 0.0000
vt 0.1645 0.1450 0.0000
vt 0.4435 0.3922 0.0000
vt 0.8990 0.2916 0.0000
vt 0.9250 0.7188 0.0000
vt 0.8547 0.7188 0.0000
vt 0.0040 0.3576 0.0000
vt 0.4014 0.1939 0.0000
vt 0.8602 0.5451 0.0000
vt 0.2030 0.1471 0.0000
vt 0.4400 0.7617 0.0000
vt 0.4400 0.7736 0.0000
vt 0.4095 0.0654 0.0000
vt 0.4363 0.7736 0.0000
vt 0.8584 0.4651 0.0000
vt 0.3094 0.1747 0.0000
vt 0.3103 0.1325 0.0000
vt 0.3078 0.1707 0.0000
vt 0.2816 0.1702 0.0000
vt 0.8195 0.5534 0.0000
vt 0.4095 0.0792 0.0000
vt 0.9649 0.7527 0.0000
vt 0.1540 0.1031 0.0000
vt 0.3853 0.2805 0.0000
vt 0.2724 0.1758 0.0000
vt 0.8491 0.7627 0.0000
vt 0.4430 0.7715 0.0000
vt 0.9032 0.2814 0.0000
vt 0.7514 0.4362 0.0000
vt 0.4074 0.0792 0.0000
vt 0.3853 0.2888 0.0000
vt 0.3853 0.2909 0.0000
vt 0.2988 0.1694 0.0000
vt 0.8318 0.7381 0.0000
vt 0.3158 0.1734 0.0000
vt 0.9108 0.2414 0.0000
vt 0.2628 0.1897 0.0000
vt 0.3245 0.1340 0.0000
vt 0.0342 0.2721 0.0000
vt 0.3715 0.2413 0.0000
vt 0.7490 0.4590 0.0000
vt 0.4245 0.2663 0.0000
vt 0.3221 0.2073 0.0000
vt 0.3017 0.1678 0.0000
vt 0.8990 0.3283 0.0000
vt 0.3047 0.1324 0.0000
vt 0.8568 0.7595 0.0000
vt 0.7798 0.7639 0.0000
vt 0.8602 0.5496 0.0000
vt 0.8193 0.5570 0.0000
vt 0.8561 0.7121 0.0000
vt 0.4060 0.2318 0.0000
vt 0.3297 0.1335 0.0000
vt 0.2814 0.1555 0.0000
vt 0.8006 0.7592 0.0000
vt 0.8283 0.5483 0.0000
vt 0.3073 0.1962 0.0000
vt 0.3033 0.1759 0.0000
vt 0.7490 0.4364 0.0000
vt 0.4230 0.2916 0.0000
vt 0.2942 0.1627 0.0000
vt 0.2972 0.1728 0.0000
vt 0.3435 0.1335 0.0000
vt 0.2854 0.2073 0.0000
vt 0.1678 0.1031 0.0000
vt 0.8335 0.7649 0.0000
vt 0.7806 0.7575 0.0000
vt 0.2666 0.1671 0.0000
vt 0.1865 0.1723 0.0000
vt 0.8402 0.5155 0.0000
vt 0.8612 0.4651 0.0000
vt 0.1242 0.1031 0.0000
vt 0.1887 0.1471 0.0000
vt 0.8557 0.0026 0.0000
vt 0.2347 0.1429 0.0000
vt 0.2052 0.1701 0.0000
vt 0.2292 0.1728 0.0000
vt 0.2045 0.1723 0.0000
vt 0.9182 0.7480 0.0000
vt 0.4245 0.0404 0.0000
vt 0.4515 0.4000 0.0000
vt 0.9649 0.7610 0.0000
vt 0.4017 0.2017 0.0000
vt 0.4095 0.0403 0.0000
vt 0.8582 0.7188 0.0000
vt 0.2746 0.2048 0.0000
vt 0.9641 0.7512 0.0000
vt 0.1910 0.0329 0.0000
vt 0.7936 0.7626 0.0000
vt 0.8212 0.5483 0.0000
vt 0.9834 0.3921 0.0000
vt 0.4321 0.0335 0.0000
vt 0.8514 0.7188 0.0000
vt 0.3077 0.1824 0.0000
vt 0.1857 0.0298 0.0000
vt 0.8604 0.7439 0.0000
vt 0.3245 0.1350 0.0000
vt 0.9752 0.0407 0.0000
vt 0.8324 0.7685 0.0000
vt 0.3221 0.2036 0.0000
vt 0.2166 0.1031 0.0000
vt 0.9108 0.7480 0.0000
vt 0.3715 0.2909 0.0000
vt 0.8281 0.5400 0.0000
vt 0.2171 0.1723 0.0000
vt 0.8206 0.7685 0.0000
vt 0.7872 0.7673 0.0000
vt 0.4381 0.2060 0.0000
vt 0.9396 0.6308 0.0000
vt 0.3924 0.9826 0.0000
vt 0.9876 0.8180 0.0000
vt 0.2028 0.1031 0.0000
vt 0.9710 0.2680 0.0000
vt 0.4492 0.7606 0.0000
vt 0.7936 0.7660 0.0000
vt 0.4321 0.0298 0.0000
vt 0.3924 0.1810 0.0000
vt 0.1835 0.1471 0.0000
vt 0.3700 0.1305 0.0000
vt 0.4150 0.3196 0.0000
vt 0.8408 0.7701 0.0000
vt 0.3965 0.1344 0.0000
vt 0.8475 0.7627 0.0000
vt 0.3853 0.2821 0.0000
vt 0.3050 0.1355 0.0000
vt 0.1910 0.0298 0.0000
vt 0.3744 0.2434 0.0000
vt 0.3630 0.1325 0.0000
vt 0.8318 0.7348 0.0000
vt 0.9752 0.0026 0.0000
vt 0.2177 0.1701 0.0000
vt 0.9018 0.3921 0.0000
vt 0.8561 0.6978 0.0000
vt 0.8584 0.4424 0.0000
vt 0.4095 0.1239 0.0000
vt 0.2560 0.1349 0.0000
vt 0.9649 0.7542 0.0000
vt 0.9056 0.4361 0.0000
vt 0.2409 0.0298 0.0000
vt 0.4515 0.4077 0.0000
vt 0.7842 0.7694 0.0000
vt 0.9752 0.0421 0.0000
vt 0.8442 0.7713 0.0000
vt 0.4570 0.7606 0.0000
vt 0.2363 0.1728 0.0000
vt 0.9834 0.8180 0.0000
vt 0.3889 0.1811 0.0000
vt 0.8990 0.4148 0.0000
vt 0.3103 0.1340 0.0000
vt 0.9108 0.7464 0.0000
vt 0.1857 0.0329 0.0000
vt 0.9027 0.3283 0.0000
vt 0.2743 0.1555 0.0000
vt 0.2683 0.1961 0.0000
vt 0.3066 0.1925 0.0000
vt 0.7798 0.7694 0.0000
vt 0.1630 0.0298 0.0000
vt 0.3884 0.1304 0.0000
vt 0.1997 0.1701 0.0000
vt 0.2843 0.1355 0.0000
vt 0.4570 0.7686 0.0000
vt 0.1730 0.1031 0.0000
vt 0.1189 0.0529 0.0000
vt 0.0390 0.9868 0.0000
vt 0.8602 0.5411 0.0000
vt 0.2999 0.1916 0.0000
vt 0.2856 0.1786 0.0000
vt 0.1991 0.1723 0.0000
vt 0.8006 0.7567 0.0000
vt 0.2380 0.1689 0.0000
vt 0.9566 0.3548 0.0000
vt 0.2194 0.0323 0.0000
vt 0.9226 0.2413 0.0000
vt 0.9278 0.6308 0.0000
vt 0.9524 0.5820 0.0000
vt 0.2779 0.1822 0.0000
vt 0.2988 0.1811 0.0000
vt 0.2202 0.0298 0.0000
vt 0.9644 0.7768 0.0000
vt 0.2137 0.0298 0.0000
vt 0.9108 0.7188 0.0000
vt 0.8226 0.7685 0.0000
vt 0.3889 0.1722 0.0000
vt 0.8531 0.5535 0.0000
vt 0.4515 0.4133 0.0000
vt 0.2596 0.1734 0.0000
vt 0.7850 0.7590 0.0000
vt 0.8387 0.7635 0.0000
vt 0.3845 0.2780 0.0000
vt 0.3930 0.9868 0.0000
vt 0.4435 0.4000 0.0000
vt 0.5397 0.9051 0.0000
vt 0.9566 0.3167 0.0000
vt 0.1507 0.1460 0.0000
vt 0.2292 0.1693 0.0000
vt 0.9108 0.7547 0.0000
vt 0.8938 0.0026 0.0000
vt 0.9710 0.0421 0.0000
vt 0.7872 0.7605 0.0000
vt 0.1454 0.1481 0.0000
vt 0.8282 0.5528 0.0000
vt 0.2991 0.1950 0.0000
vt 0.8206 0.7649 0.0000
vt 0.8527 0.6978 0.0000
vt 0.8557 0.4294 0.0000
vt 0.0383 0.2721 0.0000
vt 0.9301 0.7453 0.0000
vt 0.3923 0.0335 0.0000
vt 0.4150 0.0403 0.0000
vt 0.8407 0.6887 0.0000
vt 0.9649 0.7576 0.0000
vt 0.3487 0.1340 0.0000
vt 0.4435 0.4134 0.0000
vt 0.9366 0.7313 0.0000
vt 0.9249 0.7386 0.0000
vt 0.1871 0.1701 0.0000
vt 0.8531 0.5451 0.0000
vt 0.3487 0.1325 0.0000
vt 0.2596 0.2017 0.0000
vt 0.2030 0.1450 0.0000
vt 0.9247 0.7313 0.0000
vt 0.3845 0.2791 0.0000
vt 0.1189 0.1709 0.0000
vt 0.8531 0.5497 0.0000
vt 0.7935 0.7565 0.0000
vt 0.0342 0.2334 0.0000
vt 0.7459 0.4363 0.0000
vt 0.2559 0.1592 0.0000
vt 0.4074 0.1233 0.0000
vt 0.2941 0.1863 0.0000
vt 0.8990 0.0026 0.0000
vt 0.2683 0.1764 0.0000
vt 0.8006 0.7626 0.0000
vt 0.3144 0.1920 0.0000
vt 0.8990 0.3921 0.0000
vt 0.2556 0.1934 0.0000
vt 0.3139 0.9051 0.0000
vt 0.2383 0.1429 0.0000
vt 0.9575 0.7610 0.0000
vt 0.4382 0.1283 0.0000
vt 0.9876 0.7793 0.0000
vt 0.3297 0.1350 0.0000
vt 0.3796 0.1342 0.0000
vt 0.3185 0.1834 0.0000
vt 0.3923 0.1740 0.0000
vt 0.3715 0.2542 0.0000
vt 0.8619 0.5543 0.0000
vt 0.8619 0.5449 0.0000
vt 0.7798 0.7673 0.0000
vt 0.9566 0.5835 0.0000
vt 0.9876 0.3922 0.0000
vt 0.1247 0.1481 0.0000
vt 0.8990 0.2460 0.0000
vt 0.9643 0.7690 0.0000
vt 0.3630 0.1350 0.0000
vt 0.3723 0.2517 0.0000
vt 0.4074 0.1044 0.0000
vt 0.9649 0.7631 0.0000
vt 0.8402 0.4929 0.0000
vt 0.8461 0.7261 0.0000
vt 0.8024 0.7626 0.0000
vt 0.1697 0.1450 0.0000
vt 0.3801 0.2805 0.0000
vt 0.4339 0.2060 0.0000
vt 0.3889 0.1740 0.0000
vt 0.2723 0.1955 0.0000
vt 0.9027 0.2916 0.0000
vt 0.9566 0.6215 0.0000
vt 0.3103 0.1350 0.0000
vt 0.1835 0.1450 0.0000
vt 0.3075 0.1568 0.0000
vt 0.9566 0.3562 0.0000
vt 0.8990 0.2814 0.0000
vt 0.3779 0.1303 0.0000
vt 0.3809 0.2909 0.0000
vt 0.3670 0.2468 0.0000
vt 0.2659 0.1555 0.0000
vt 0.4095 0.1109 0.0000
vt 0.9564 0.7576 0.0000
vt 0.2647 0.1940 0.0000
vt 0.8506 0.7672 0.0000
vt 0.8260 0.7693 0.0000
vt 0.3809 0.2413 0.0000
vt 0.3124 0.1891 0.0000
vt 0.3679 0.2909 0.0000
vt 0.1384 0.1031 0.0000
vt 0.8407 0.6920 0.0000
vt 0.3435 0.1350 0.0000
vt 0.9605 0.7512 0.0000
vt 0.2922 0.1598 0.0000
vt 0.9108 0.6672 0.0000
vt 0.0036 0.9868 0.0000
vt 0.2583 0.1555 0.0000
vt 0.8516 0.7635 0.0000
vt 0.3809 0.2791 0.0000
vt 0.0383 0.2374 0.0000
vt 0.4097 0.2318 0.0000
vt 0.2363 0.1694 0.0000
vt 0.3853 0.2855 0.0000
vt 0.3882 0.1342 0.0000
vt 0.5397 0.9400 0.0000
vt 0.1507 0.1476 0.0000
vt 0.8318 0.7188 0.0000
vt 0.8455 0.7313 0.0000
vt 0.2972 0.1771 0.0000
vt 0.2380 0.1728 0.0000
vt 0.4289 0.6721 0.0000
vt 0.3678 0.2434 0.0000
vt 0.2347 0.1031 0.0000
vt 0.8195 0.5431 0.0000
vt 0.8309 0.7693 0.0000
vt 0.7798 0.7605 0.0000
vt 0.3756 0.2468 0.0000
vt 0.8024 0.7587 0.0000
vt 0.4230 0.3009 0.0000
vt 0.9111 0.7342 0.0000
vt 0.4230 0.3198 0.0000
vt 0.9330 0.7314 0.0000
vt 0.2751 0.1915 0.0000
vt 0.9564 0.7767 0.0000
vt 0.4340 0.1283 0.0000
vt 0.9226 0.6672 0.0000
vt 0.8426 0.5154 0.0000
vt 0.1887 0.1450 0.0000
vt 0.9752 0.2680 0.0000
vt 0.4286 0.0404 0.0000
vt 0.3487 0.1350 0.0000
vt 0.4515 0.3923 0.0000
vt 0.2908 0.1784 0.0000
vt 0.9116 0.7449 0.0000
vt 0.2840 0.1324 0.0000
vt 0.2665 0.2060 0.0000
vt 0.3067 0.1603 0.0000
vt 0.4286 0.2662 0.0000
vt 0.8557 0.4651 0.0000
vt 0.9111 0.7386 0.0000
vt 0.9396 0.2413 0.0000
vt 0.2854 0.2036 0.0000
vt 0.8195 0.5483 0.0000
vt 0.9876 0.4309 0.0000
vt 0.2993 0.1556 0.0000
vt 0.4013 0.1835 0.0000
vt 0.8006 0.7659 0.0000
vt 0.3678 0.2413 0.0000
vt 0.3245 0.1325 0.0000
vt 0.2648 0.1796 0.0000
vt 0.3928 0.1722 0.0000
vt 0.9160 0.7464 0.0000
vt 0.3809 0.2780 0.0000
vt 0.3095 0.1790 0.0000
vt 0.7459 0.4590 0.0000
vt 0.4074 0.1103 0.0000
vt 0.1507 0.1450 0.0000
vt 0.8990 0.2285 0.0000
vt 0.1730 0.1398 0.0000
vt 0.9056 0.8629 0.0000
vt 0.8318 0.7313 0.0000
vt 0.8602 0.5533 0.0000
vt 0.9153 0.7439 0.0000
vt 0.4093 0.1835 0.0000
vt 0.4097 0.2162 0.0000
vt 0.3139 0.9400 0.0000
vt 0.0040 0.6721 0.0000
vt 0.8619 0.5500 0.0000
vt 0.8318 0.7232 0.0000
vt 0.9605 0.7502 0.0000
vt 0.9752 0.3075 0.0000
vt 0.8516 0.7672 0.0000
vt 0.4094 0.1939 0.0000
vt 0.8531 0.5409 0.0000
vt 0.3630 0.1340 0.0000
vt 0.2383 0.1031 0.0000
vt 0.4192 0.0403 0.0000
vt 0.8594 0.7121 0.0000
vt 0.3158 0.1821 0.0000
vt 0.4435 0.4077 0.0000
vt 0.8455 0.7348 0.0000
vt 0.1244 0.1450 0.0000
vt 0.3576 0.9868 0.0000
vt 0.7514 0.4589 0.0000
vt 0.4363 0.7607 0.0000
vt 0.9110 0.7253 0.0000
vt 0.8582 0.7326 0.0000
vt 0.2746 0.1660 0.0000
vt 0.8460 0.7232 0.0000
vt 0.8371 0.4929 0.0000
vt 0.2855 0.1890 0.0000
vt 0.9448 0.3167 0.0000
vt 0.8568 0.7439 0.0000
vt 0.3986 0.1305 0.0000
vt 0.4060 0.2162 0.0000
vt 0.3779 0.2821 0.0000
# 551 texture coords

o SM_Cabinet_Door
g SM_Cabinet_Door
s 8
f 1/322/1 2/382/2 4/139/3 
f 4/139/4 3/65/5 1/322/6 
# 2 faces

